#N canvas 362 126 962 518 12;
#X obj 62 98 cnv 15 400 100 empty empty CONVERT_PD_MESSAGE_TO_BYTES(LIST) 0 -10 0 14 #c4c4fc #404040 0;
#X obj 529 225 cnv 15 400 260 empty empty CONVERT_BYTES(LIST)_TO_PD_MESSAGE 0 -10 0 14 #c4c4fc #404040 0;
#X obj 519 86 cnv 15 200 60 empty empty RECEIVE_BYTES(LIST)_FROM_UDP 0 -10 0 14 #fcfcc4 #404040 0;
#X obj 565 121 bng 15 250 50 0 empty empty data 17 7 0 10 #fcfcfc #000000 #000000;
#X obj 542 416 spigot;
#X obj 580 392 tgl 15 0 empty empty empty 17 7 0 10 #fcfcfc #000000 #000000 0 1;
#X obj 541 460 print debug;
#X obj 56 239 cnv 15 350 200 empty empty SEND_BYTES(LIST)_TO_UDP 0 -10 0 14 #fcfcc4 #404040 0;
#X obj 222 301 loadbang;
#X msg 222 365 disconnect;
#X text 599 391 Print the message sent by the serial port;
#X obj 68 396 netsend -u -b;
#X obj 542 235 oscparse;
#X text 605 236 Convert raw OSC to PD message;
#X obj 542 264 list trim;
#X obj 68 251 list prepend send;
#X obj 68 277 list trim;
#X text 68 164 WARNING: oscfornat automatically prefixes / to the address;
#X obj 70 143 oscformat -f f alpha;
#X msg 222 333 disconnect \, connect plaquette.local 8888;
#X obj 541 92 netreceive -u -b 7777;
#X obj 579 337 loadbang;
#X msg 579 363 1;
#X floatatom 70 108 5 0 0 0 - - - 0;
#X connect 4 0 6 0;
#X connect 5 0 4 1;
#X connect 8 0 19 0;
#X connect 9 0 11 0;
#X connect 12 0 14 0;
#X connect 14 0 4 0;
#X connect 15 0 16 0;
#X connect 16 0 11 0;
#X connect 18 0 15 0;
#X connect 19 0 11 0;
#X connect 20 0 3 0;
#X connect 20 0 12 0;
#X connect 21 0 22 0;
#X connect 22 0 5 0;
#X connect 23 0 18 0;
