#N canvas 547 183 768 654 12;
#X obj 162 353 comport;
#X msg 300 196 devices;
#X msg 355 240 baud 115200;
#X msg 373 288 open 4;
#X text 360 196 Lister les ports dans la fenêtre Pd;
#X text 445 237 Choisir le bon débit;
#X text 426 287 Ouvrir le bon port;
#X obj 163 574 print;
#X text 205 574 Les données reçues sont imprimées dans la fenêtre Pd;
#X msg 391 319 close;
#X text 441 320 Libérer le port;
#X obj 162 409 pdchoco/slip_parse;
#X obj 163 483 oscparse;
#X obj 163 510 list trim;
#X text 296 410 Traiter les données SLIP;
#X text 229 483 Traiter les données OSC;
#X text 236 508 Retirer le préfixe list;
#X obj 164 142 pdchoco/slip_pack;
#X obj 164 94 oscformat -f f alpha;
#X floatatom 165 66 5 0 0 0 - - - 0;
#X connect 0 0 11 0;
#X connect 1 0 0 0;
#X connect 2 0 0 0;
#X connect 3 0 0 0;
#X connect 9 0 0 0;
#X connect 11 0 12 0;
#X connect 12 0 13 0;
#X connect 13 0 7 0;
#X connect 17 0 0 0;
#X connect 18 0 17 0;
#X connect 19 0 18 0;
